<svg width="162" height="159" xmlns="http://www.w3.org/2000/svg" xmlns:xlink="http://www.w3.org/1999/xlink" xml:space="preserve" overflow="hidden"><defs><clipPath id="clip0"><rect x="207" y="182" width="162" height="159"/></clipPath></defs><g clip-path="url(#clip0)" transform="translate(-207 -182)"><path d="M266.739 80.0267 270.182 80.0267 270.182 136.055 266.739 136.055Z" fill="#001489" transform="matrix(1.00748 0 0 1 146.391 109.89)"/><path d="M281.915 96.0346 285.276 96.0346 285.276 103.078C285.277 104.18 285.17 105.279 284.956 106.36L285.116 106.36C287.992 99.5315 294.675 95.087 302.085 95.0743 312.49 95.0743 315.292 101.237 315.292 110.682L315.292 136.055 311.93 136.055 311.93 111.883C311.93 104.92 311.049 98.356 302.085 98.356 294.445 98.4741 287.826 103.684 285.917 111.083 285.453 112.859 285.237 114.69 285.276 116.525L285.276 136.055 281.915 136.055Z" fill="#001489" transform="matrix(1.00748 0 0 1 146.391 109.89)"/><path d="M323.47 128.692C326.769 131.958 331.235 133.773 335.877 133.735 340.76 133.735 345.083 131.173 345.083 126.211 345.083 116.046 323.071 118.927 323.071 105.88 323.071 98.7566 329.074 95.0742 335.877 95.0742 344.041 95.0742 347.723 99.3966 347.723 99.3966L345.721 102.118C345.721 102.118 342.44 98.356 335.637 98.356 331.075 98.356 326.593 100.437 326.593 105.64 326.593 116.046 348.604 112.924 348.604 126.211 348.604 132.613 343.161 137.016 335.796 137.016 326.113 137.016 321.31 131.253 321.31 131.253Z" fill="#001489" transform="matrix(1.00748 0 0 1 146.391 109.89)"/><path d="M355.789 96.0346 359.152 96.0346 359.152 100.838C359.156 101.909 359.075 102.979 358.912 104.038L359.072 104.038C359.072 104.038 362.353 95.0742 373.479 95.0742 384.204 95.0742 390.767 103.639 390.767 116.046 390.767 128.771 383.324 137.016 372.999 137.016 366.952 137.035 361.462 133.49 358.991 127.971L358.832 127.971C359.054 129.132 359.162 130.311 359.152 131.493L359.152 152.065 355.789 152.065ZM372.999 133.735C380.843 133.735 387.245 127.251 387.245 116.046 387.245 105.239 381.484 98.356 373.319 98.356 365.954 98.356 359.072 103.559 359.072 116.125 359.072 125.01 364.033 133.735 372.999 133.735Z" fill="#001489" transform="matrix(1.00748 0 0 1 146.391 109.89)"/><path d="M398.481 80.0267 402.484 80.0267 402.484 85.8695 398.481 85.8695ZM398.802 96.0346 402.164 96.0346 402.164 136.055 398.802 136.055Z" fill="#001489" transform="matrix(1.00748 0 0 1 146.391 109.89)"/><path d="M412.408 96.0346 415.77 96.0346 415.77 103.639C415.771 104.741 415.663 105.84 415.449 106.921L415.609 106.921C417.611 100.758 422.093 95.7151 428.416 95.7151 429.196 95.723 429.973 95.803 430.738 95.9544L430.738 99.3165C430.129 99.2196 429.513 99.1661 428.897 99.1562 422.654 99.1562 418.732 104.439 416.97 110.362 416.151 113.088 415.747 115.921 415.77 118.767L415.77 136.055 412.408 136.055Z" fill="#001489" transform="matrix(1.00748 0 0 1 146.391 109.89)"/><path d="M450.731 95.0742C461.617 95.0742 467.059 103.639 467.059 113.324 467.059 114.205 466.899 115.484 466.899 115.484L434.803 115.484C434.803 127.091 442.647 133.735 451.932 133.735 456.56 133.7 460.998 131.895 464.339 128.692L466.179 131.493C462.251 134.992 457.192 136.953 451.932 137.016 440.645 137.016 431.281 128.851 431.281 116.125 431.281 102.598 440.486 95.0742 450.731 95.0742ZM463.537 112.363C463.137 102.598 457.294 98.1958 450.651 98.1958 443.286 98.1958 436.484 102.999 435.043 112.363Z" fill="#001489" transform="matrix(1.00748 0 0 1 146.391 109.89)"/><path d="M490.357 95.0742C500.442 95.0742 504.206 104.119 504.206 104.119L504.365 104.119C504.151 103.038 504.044 101.939 504.045 100.838L504.045 80.0267 507.406 80.0267 507.406 136.055 504.045 136.055 504.045 131.013C504.032 129.99 504.139 128.969 504.365 127.971L504.206 127.971C501.661 133.648 495.935 137.224 489.718 137.016 478.991 137.016 472.428 128.451 472.428 116.046 472.428 103.318 479.873 95.0742 490.357 95.0742ZM489.877 133.735C497.241 133.735 504.125 128.532 504.125 115.965 504.125 107.081 499.562 98.3561 490.197 98.3561 482.353 98.3561 475.951 104.84 475.951 116.046 475.951 126.851 481.712 133.735 489.877 133.735Z" fill="#001489" transform="matrix(1.00748 0 0 1 146.391 109.89)"/><path d="M540.46 80.0267 543.823 80.0267 543.823 100.838C543.824 101.939 543.716 103.038 543.502 104.119L543.662 104.119C546.206 98.4405 551.931 94.8657 558.15 95.0742 568.874 95.0742 575.437 103.639 575.437 116.046 575.437 128.771 567.994 137.016 557.509 137.016 547.424 137.016 543.662 127.971 543.662 127.971L543.502 127.971C543.725 129.132 543.832 130.311 543.823 131.493L543.823 136.055 540.46 136.055ZM557.668 133.735C565.512 133.735 571.916 127.251 571.916 116.046 571.916 105.239 566.153 98.356 557.99 98.356 550.625 98.356 543.742 103.559 543.742 116.125 543.742 125.01 548.302 133.735 557.668 133.735Z" fill="#001489" transform="matrix(1.00748 0 0 1 146.391 109.89)"/><path d="M577.245 147.741C578.656 148.889 580.393 149.562 582.208 149.663 586.05 149.663 588.451 146.22 590.052 142.459L592.935 135.815 576.366 96.0346 579.967 96.0346 593.173 127.971C593.974 129.891 594.615 131.732 594.615 131.732L594.776 131.732C594.776 131.732 595.333 129.891 596.135 127.971L609.343 96.0346 612.944 96.0346 592.373 145.42C590.612 149.582 587.249 152.864 582.208 152.864 579.861 152.838 577.586 152.052 575.725 150.623Z" fill="#001489" transform="matrix(1.00748 0 0 1 146.391 109.89)"/><path d="M637.675 95.5548 644.798 95.5548 644.798 98.996C644.796 99.9856 644.742 100.974 644.637 101.958L644.798 101.958C644.798 101.958 648.24 94.5945 658.406 94.5945 669.29 94.5945 676.175 103.238 676.175 115.805 676.175 128.692 668.41 137.016 657.844 137.016 652.82 137.172 648.093 134.641 645.439 130.373L645.278 130.373C645.278 130.373 645.439 131.813 645.439 133.894L645.439 152.065 637.675 152.065ZM656.646 130.373C663.047 130.373 668.331 125.089 668.331 115.885 668.331 107.081 663.607 101.398 656.884 101.398 650.801 101.398 645.199 105.64 645.199 115.965 645.199 123.169 649.2 130.373 656.646 130.373Z" fill="#001489" transform="matrix(1.00748 0 0 1 146.391 109.89)"/><path d="M703.545 110.763 705.307 110.763 705.307 110.042C705.307 103.399 701.544 101.157 696.422 101.157 692.355 101.317 688.426 102.683 685.135 105.079L681.935 99.3966C686.335 96.2215 691.637 94.5386 697.063 94.5945 707.309 94.5945 713.072 100.197 713.072 110.442L713.072 136.055 705.866 136.055 705.866 132.214C705.863 131.144 705.917 130.076 706.027 129.011L705.866 129.011C703.5 134.002 698.423 137.137 692.901 137.016 685.937 137.016 679.132 132.773 679.132 124.689 679.132 111.322 696.743 110.763 703.545 110.763ZM694.582 130.773C701.145 130.773 705.387 123.89 705.387 117.886L705.387 116.606 703.387 116.606C697.542 116.606 686.979 117.005 686.979 124.289 686.979 127.571 689.538 130.773 694.582 130.773Z" fill="#001489" transform="matrix(1.00748 0 0 1 146.391 109.89)"/><path d="M722.107 102.358 716.825 102.358 716.825 96.1147 722.347 96.1147 722.347 84.4293 729.871 84.4293 729.871 96.1147 739.635 96.1147 739.635 102.358 729.871 102.358 729.871 120.368C729.871 128.451 735.553 129.492 738.515 129.492 739.132 129.5 739.75 129.446 740.356 129.332L740.356 136.216C739.453 136.327 738.544 136.381 737.634 136.376 732.432 136.376 722.107 134.774 722.107 121.248Z" fill="#001489" transform="matrix(1.00748 0 0 1 146.391 109.89)"/><path d="M744.805 79.546 752.649 79.546 752.649 87.4708 744.805 87.4708ZM744.885 95.5548 752.649 95.5548 752.649 136.055 744.885 136.055Z" fill="#001489" transform="matrix(1.00748 0 0 1 146.391 109.89)"/><path d="M779.037 94.5945C790.484 94.5945 796.568 103.078 796.568 113.564 796.568 114.604 796.326 116.926 796.326 116.926L766.79 116.926C767.191 125.81 773.515 130.292 780.717 130.292 785.143 130.142 789.383 128.474 792.725 125.57L795.927 131.253C791.551 134.983 785.988 137.027 780.239 137.016 767.512 137.016 758.787 127.811 758.787 115.805 758.787 102.919 767.512 94.5945 779.037 94.5945ZM788.643 111.083C788.403 104.119 784.08 100.758 778.877 100.758 772.954 100.758 768.153 104.439 767.032 111.083Z" fill="#001489" transform="matrix(1.00748 0 0 1 146.391 109.89)"/><path d="M802.961 95.5548 810.484 95.5548 810.484 100.918C810.482 101.907 810.429 102.896 810.324 103.879L810.484 103.879C813.3 98.0753 819.243 94.4473 825.693 94.5945 835.217 94.5945 839.619 99.7972 839.619 110.123L839.619 136.055 831.856 136.055 831.856 111.883C831.856 106.2 830.654 101.718 824.171 101.718 818.143 101.732 812.882 105.809 811.365 111.643 810.892 113.417 810.676 115.25 810.724 117.086L810.724 136.055 802.961 136.055Z" fill="#001489" transform="matrix(1.00748 0 0 1 146.391 109.89)"/><path d="M848.653 102.358 843.372 102.358 843.372 96.1147 848.893 96.1147 848.893 84.4293 856.418 84.4293 856.418 96.1147 866.183 96.1147 866.183 102.358 856.418 102.358 856.418 120.368C856.418 128.451 862.102 129.492 865.062 129.492 865.68 129.5 866.296 129.446 866.905 129.332L866.905 136.216C866.001 136.327 865.092 136.381 864.183 136.376 858.979 136.376 848.653 134.774 848.653 121.248Z" fill="#001489" transform="matrix(1.00748 0 0 1 146.391 109.89)"/><path d="M873.458 125.57C876.604 128.533 880.743 130.217 885.063 130.292 888.425 130.292 891.788 128.532 891.788 125.25 891.788 117.806 870.977 119.328 870.977 106.12 870.977 98.7566 877.54 94.5945 885.624 94.5945 894.508 94.5945 898.67 99.0762 898.67 99.0762L895.549 104.92C892.774 102.523 889.211 101.239 885.545 101.317 882.182 101.317 878.901 102.759 878.901 106.28 878.901 113.564 899.711 111.963 899.711 125.25 899.711 131.973 893.949 137.016 885.063 137.016 879.363 137.129 873.845 135.003 869.695 131.093Z" fill="#001489" transform="matrix(1.00748 0 0 1 146.391 109.89)"/><path d="M906.537 127.811 914.701 127.811 914.701 136.055 906.537 136.055Z" fill="#001489" transform="matrix(1.00748 0 0 1 146.391 109.89)"/><path d="M266.739 165.801 284.35 165.801C300.997 165.801 312.284 176.046 312.284 193.816 312.284 211.664 300.997 221.829 284.35 221.829L266.739 221.829ZM283.789 218.627C298.677 218.627 308.682 209.903 308.682 193.816 308.682 177.807 298.677 169.002 283.789 169.002L270.182 169.002 270.182 218.627Z" fill="#001489" transform="matrix(1.00748 0 0 1 146.391 109.89)"/><path d="M321.439 181.809 324.802 181.809 324.802 189.413C324.803 190.514 324.695 191.613 324.481 192.694L324.641 192.694C326.641 186.532 331.123 181.489 337.447 181.489 338.226 181.496 339.003 181.577 339.768 181.729L339.768 185.091C339.158 184.993 338.543 184.94 337.927 184.93 331.684 184.93 327.762 190.213 326 196.136 325.183 198.861 324.778 201.694 324.8 204.54L324.8 221.829 321.438 221.829Z" fill="#001489" transform="matrix(1.00748 0 0 1 146.391 109.89)"/><path d="M344.594 165.801 348.596 165.801 348.596 171.643 344.594 171.643ZM344.913 181.809 348.275 181.809 348.275 221.829 344.913 221.829Z" fill="#001489" transform="matrix(1.00748 0 0 1 146.391 109.89)"/><path d="M353.23 181.809 356.831 181.809 369.156 213.185C369.878 215.106 370.517 217.507 370.517 217.507L370.677 217.507C370.677 217.507 371.318 215.106 372.038 213.185L384.364 181.809 387.886 181.809 372.198 221.829 368.997 221.829Z" fill="#001489" transform="matrix(1.00748 0 0 1 146.391 109.89)"/><path d="M408.216 180.848C419.101 180.848 424.544 189.413 424.544 199.097 424.544 199.978 424.384 201.259 424.384 201.259L392.287 201.259C392.287 212.864 400.131 219.508 409.417 219.508 414.045 219.473 418.484 217.668 421.823 214.465L423.664 217.268C419.737 220.767 414.677 222.727 409.417 222.789 398.13 222.789 388.766 214.625 388.766 201.9 388.766 188.373 397.971 180.848 408.216 180.848ZM421.022 198.137C420.622 188.373 414.779 183.969 408.136 183.969 400.772 183.969 393.969 188.772 392.528 198.137Z" fill="#001489" transform="matrix(1.00748 0 0 1 146.391 109.89)"/><path d="M432.37 181.809 435.732 181.809 435.732 188.852C435.733 189.954 435.627 191.053 435.412 192.134L435.572 192.134C438.448 185.305 445.132 180.86 452.541 180.848 462.947 180.848 465.747 187.011 465.747 196.456L465.747 221.829 462.387 221.829 462.387 197.657C462.387 190.694 461.504 184.13 452.541 184.13 444.9 184.248 438.282 189.458 436.372 196.857 435.909 198.632 435.694 200.464 435.732 202.299L435.732 221.829 432.37 221.829Z" fill="#001489" transform="matrix(1.00748 0 0 1 146.391 109.89)"/><path d="M498.242 165.801 501.605 165.801 501.605 186.612C501.606 187.713 501.498 188.812 501.284 189.893L501.444 189.893C503.988 184.214 509.714 180.64 515.932 180.848 526.655 180.848 533.22 189.413 533.22 201.819 533.22 214.546 525.776 222.789 515.29 222.789 505.206 222.789 501.444 213.745 501.444 213.745L501.284 213.745C501.507 214.906 501.614 216.086 501.604 217.268L501.604 221.829 498.241 221.829ZM515.451 219.508C523.295 219.508 529.698 213.025 529.698 201.819 529.698 191.013 523.936 184.13 515.772 184.13 508.406 184.13 501.524 189.333 501.524 201.9 501.524 210.783 506.085 219.508 515.451 219.508Z" fill="#001489" transform="matrix(1.00748 0 0 1 146.391 109.89)"/><path d="M535.027 233.516C536.438 234.663 538.174 235.335 539.99 235.436 543.832 235.436 546.234 231.995 547.834 228.232L550.716 221.588 534.148 181.809 537.749 181.809 550.955 213.745C551.756 215.666 552.397 217.507 552.397 217.507L552.557 217.507C552.557 217.507 553.116 215.666 553.917 213.745L567.124 181.809 570.726 181.809 550.156 231.194C548.395 235.357 545.032 238.638 539.99 238.638 537.643 238.612 535.369 237.825 533.507 236.397Z" fill="#001489" transform="matrix(1.00748 0 0 1 146.391 109.89)"/><path d="M595.937 211.343C599.084 214.307 603.222 215.99 607.543 216.067 610.904 216.067 614.267 214.306 614.267 211.024 614.267 203.58 593.457 205.101 593.457 191.894 593.457 184.531 600.02 180.368 608.104 180.368 616.987 180.368 621.149 184.85 621.149 184.85L618.029 190.694C615.254 188.296 611.689 187.012 608.024 187.091 604.661 187.091 601.38 188.532 601.38 192.053 601.38 199.337 622.191 197.738 622.191 211.023 622.191 217.747 616.428 222.789 607.543 222.789 601.843 222.903 596.325 220.777 592.174 216.867Z" fill="#001489" transform="matrix(1.00748 0 0 1 146.391 109.89)"/><path d="M646.555 180.368C656.72 180.368 661.761 186.292 661.761 186.292L658.079 191.735C655.074 188.812 651.065 187.15 646.873 187.091 638.708 187.091 632.786 193.175 632.786 201.499 632.786 209.743 638.708 216.067 647.114 216.067 651.82 215.922 656.29 213.973 659.6 210.624L662.723 216.307C658.442 220.581 652.602 222.923 646.555 222.789 633.828 222.789 624.863 213.745 624.863 201.579 624.863 189.573 633.828 180.368 646.555 180.368Z" fill="#001489" transform="matrix(1.00748 0 0 1 146.391 109.89)"/><path d="M667.458 165.32 675.302 165.32 675.302 173.245 667.458 173.245ZM667.539 181.329 675.302 181.329 675.302 221.829 667.539 221.829Z" fill="#001489" transform="matrix(1.00748 0 0 1 146.391 109.89)"/><path d="M701.693 180.368C713.138 180.368 719.221 188.852 719.221 199.337 719.221 200.378 718.98 202.699 718.98 202.699L689.447 202.699C689.846 211.583 696.168 216.067 703.373 216.067 707.798 215.915 712.037 214.248 715.378 211.343L718.582 217.026C714.205 220.756 708.642 222.8 702.892 222.789 690.165 222.789 681.442 213.585 681.442 201.579 681.442 188.693 690.165 180.368 701.693 180.368ZM711.297 196.857C711.057 189.893 706.734 186.532 701.533 186.532 695.609 186.532 690.806 190.213 689.687 196.857Z" fill="#001489" transform="matrix(1.00748 0 0 1 146.391 109.89)"/><path d="M725.614 181.329 733.137 181.329 733.137 186.691C733.136 187.681 733.082 188.669 732.978 189.654L733.137 189.654C735.953 183.849 741.897 180.221 748.346 180.368 757.87 180.368 762.273 185.571 762.273 195.897L762.273 221.829 754.509 221.829 754.509 197.657C754.509 191.974 753.307 187.492 746.824 187.492 740.796 187.505 735.536 191.583 734.018 197.417 733.546 199.191 733.329 201.024 733.377 202.86L733.377 221.829 725.614 221.829Z" fill="#001489" transform="matrix(1.00748 0 0 1 146.391 109.89)"/><path d="M789.607 180.368C799.772 180.368 804.813 186.292 804.813 186.292L801.132 191.735C798.127 188.812 794.117 187.15 789.925 187.091 781.761 187.091 775.839 193.175 775.839 201.499 775.839 209.743 781.761 216.067 790.166 216.067 794.873 215.922 799.342 213.973 802.653 210.624L805.775 216.307C801.494 220.581 795.655 222.923 789.607 222.789 776.88 222.789 767.914 213.745 767.914 201.579 767.914 189.573 776.879 180.368 789.607 180.368Z" fill="#001489" transform="matrix(1.00748 0 0 1 146.391 109.89)"/><path d="M827.633 180.368C839.078 180.368 845.161 188.852 845.161 199.337 845.161 200.378 844.921 202.699 844.921 202.699L815.387 202.699C815.788 211.583 822.109 216.067 829.314 216.067 833.739 215.915 837.977 214.248 841.32 211.343L844.522 217.026C840.147 220.756 834.583 222.8 828.833 222.789 816.106 222.789 807.383 213.585 807.383 201.579 807.383 188.693 816.106 180.368 827.633 180.368ZM837.237 196.857C836.997 189.893 832.674 186.532 827.473 186.532 821.55 186.532 816.746 190.213 815.627 196.857Z" fill="#001489" transform="matrix(1.00748 0 0 1 146.391 109.89)"/><path d="M851.387 213.585 859.551 213.585 859.551 221.829 851.387 221.829Z" fill="#001489" transform="matrix(1.00748 0 0 1 146.391 109.89)"/><path d="M140.267 80.0263 139.353 80.0263 139.353 136.999 137.329 136.999 137.329 154.725 129.987 154.725 129.987 136.999 120.618 136.999 120.618 164.852 139.353 164.852 139.353 221.828 140.268 221.828 140.268 164.852 147.456 164.852 147.456 136.999 140.268 136.999 140.267 80.0263Z" fill="#001489" transform="matrix(1.00748 0 0 1 146.391 109.89)"/><path d="M128.769 80.0267 68.9103 80.0267 68.9103 139.887C73.7266 109.041 97.9235 84.8438 128.769 80.0267Z" fill="#001489" transform="matrix(1.00748 0 0 1 146.391 109.89)"/><path d="M210.712 139.887 210.71 80.0267 150.85 80.0267C181.696 84.8439 205.895 109.041 210.712 139.887Z" fill="#001489" transform="matrix(1.00748 0 0 1 146.391 109.89)"/><path d="M68.9103 161.965 68.9103 221.828 128.77 221.828C97.9236 217.01 73.7262 192.811 68.9103 161.965Z" fill="#001489" transform="matrix(1.00748 0 0 1 146.391 109.89)"/><path d="M150.853 221.828 210.712 221.829 210.712 161.965C205.895 192.811 181.697 217.008 150.853 221.828Z" fill="#001489" transform="matrix(1.00748 0 0 1 146.391 109.89)"/><path d="M186.28 136.999 186.28 121.3 176.151 121.3 176.151 164.852 203.499 164.852 203.499 136.999ZM194.13 154.725 186.28 154.725 186.28 147.129 194.13 147.129Z" fill="#001489" transform="matrix(1.00748 0 0 1 146.391 109.89)"/><path d="M173.114 154.726 160.96 154.726 160.96 147.131 173.114 147.131 173.114 137.001 150.829 137.001 150.829 164.855 173.114 164.855 173.114 154.726Z" fill="#001489" transform="matrix(1.00748 0 0 1 146.391 109.89)"/></g></svg>